<mxfile host="Electron" agent="Mozilla/5.0 (X11; Linux x86_64) AppleWebKit/537.36 (KHTML, like Gecko) draw.io/24.7.17 Chrome/128.0.6613.36 Electron/32.0.1 Safari/537.36" version="24.7.17">
  <diagram name="Page-1" id="PvO7PaFhvo8tSTidr793">
    <mxGraphModel dx="2887" dy="1389" grid="0" gridSize="10" guides="1" tooltips="1" connect="1" arrows="1" fold="1" page="0" pageScale="1" pageWidth="850" pageHeight="1100" math="0" shadow="0">
      <root>
        <mxCell id="0" />
        <mxCell id="1" parent="0" />
        <mxCell id="tGHlBoQcHOteD8q6I_E0-1" value="Classe AndarVIP" style="rounded=0;whiteSpace=wrap;html=1;strokeWidth=2;fontSize=16;" parent="1" vertex="1">
          <mxGeometry x="-865" y="-14" width="250" height="109" as="geometry" />
        </mxCell>
        <mxCell id="IoiNk8IZeVNX4eK0WC4M-1" value="Aguardando Alteração" style="swimlane;fontStyle=0;childLayout=stackLayout;horizontal=1;startSize=26;fillColor=none;horizontalStack=0;resizeParent=1;resizeParentMax=0;resizeLast=0;collapsible=1;marginBottom=0;whiteSpace=wrap;html=1;rounded=1;" parent="1" vertex="1">
          <mxGeometry x="-531.5" y="198" width="159" height="65" as="geometry" />
        </mxCell>
        <mxCell id="IoiNk8IZeVNX4eK0WC4M-2" value="Aguarda por alteração na lista de acesso" style="text;strokeColor=none;fillColor=none;align=left;verticalAlign=top;spacingLeft=4;spacingRight=4;overflow=hidden;rotatable=0;points=[[0,0.5],[1,0.5]];portConstraint=eastwest;whiteSpace=wrap;html=1;" parent="IoiNk8IZeVNX4eK0WC4M-1" vertex="1">
          <mxGeometry y="26" width="159" height="39" as="geometry" />
        </mxCell>
        <mxCell id="IoiNk8IZeVNX4eK0WC4M-3" value="" style="ellipse;html=1;shape=startState;fillColor=#000000;strokeColor=#ff0000;" parent="1" vertex="1">
          <mxGeometry x="-467" y="-14" width="30" height="30" as="geometry" />
        </mxCell>
        <mxCell id="IoiNk8IZeVNX4eK0WC4M-4" value="" style="edgeStyle=orthogonalEdgeStyle;html=1;verticalAlign=bottom;endArrow=open;endSize=8;strokeColor=#ff0000;rounded=0;fontSize=12;curved=1;" parent="1" source="IoiNk8IZeVNX4eK0WC4M-3" edge="1">
          <mxGeometry relative="1" as="geometry">
            <mxPoint x="-452" y="76" as="targetPoint" />
          </mxGeometry>
        </mxCell>
        <mxCell id="OYxBc7l5gQZNsj0rQO2C-1" style="edgeStyle=none;curved=0;rounded=1;orthogonalLoop=1;jettySize=auto;html=1;exitX=0;exitY=1;exitDx=0;exitDy=0;fontSize=12;startSize=8;endSize=8;entryX=0.5;entryY=0;entryDx=0;entryDy=0;" parent="1" source="IoiNk8IZeVNX4eK0WC4M-5" edge="1">
          <mxGeometry relative="1" as="geometry">
            <mxPoint x="-644.5000000000002" y="431" as="targetPoint" />
            <Array as="points">
              <mxPoint x="-644" y="398" />
            </Array>
          </mxGeometry>
        </mxCell>
        <mxCell id="OYxBc7l5gQZNsj0rQO2C-2" value="[adição de usuário]" style="edgeLabel;html=1;align=center;verticalAlign=middle;resizable=0;points=[];fontSize=12;fontFamily=Helvetica;fontColor=default;labelBackgroundColor=default;" parent="OYxBc7l5gQZNsj0rQO2C-1" vertex="1" connectable="0">
          <mxGeometry x="-0.0524" relative="1" as="geometry">
            <mxPoint x="5" y="-3" as="offset" />
          </mxGeometry>
        </mxCell>
        <mxCell id="OYxBc7l5gQZNsj0rQO2C-11" style="edgeStyle=none;shape=connector;curved=0;rounded=1;orthogonalLoop=1;jettySize=auto;html=1;exitX=1;exitY=1;exitDx=0;exitDy=0;entryX=0.5;entryY=0;entryDx=0;entryDy=0;strokeColor=default;align=center;verticalAlign=middle;fontFamily=Helvetica;fontSize=12;fontColor=default;labelBackgroundColor=default;startSize=8;endArrow=classic;endSize=8;" parent="1" source="IoiNk8IZeVNX4eK0WC4M-5" target="OYxBc7l5gQZNsj0rQO2C-9" edge="1">
          <mxGeometry relative="1" as="geometry">
            <Array as="points">
              <mxPoint x="-266" y="397" />
            </Array>
          </mxGeometry>
        </mxCell>
        <mxCell id="OYxBc7l5gQZNsj0rQO2C-12" value="[remoção de usuário]" style="edgeLabel;html=1;align=center;verticalAlign=middle;resizable=0;points=[];fontSize=12;fontFamily=Helvetica;fontColor=default;labelBackgroundColor=default;" parent="OYxBc7l5gQZNsj0rQO2C-11" vertex="1" connectable="0">
          <mxGeometry x="-0.2941" y="1" relative="1" as="geometry">
            <mxPoint x="10" y="3" as="offset" />
          </mxGeometry>
        </mxCell>
        <mxCell id="IoiNk8IZeVNX4eK0WC4M-5" value="" style="ellipse;whiteSpace=wrap;html=1;aspect=fixed;strokeWidth=2;" parent="1" vertex="1">
          <mxGeometry x="-470" y="335" width="31" height="31" as="geometry" />
        </mxCell>
        <mxCell id="IoiNk8IZeVNX4eK0WC4M-6" style="edgeStyle=none;curved=1;rounded=0;orthogonalLoop=1;jettySize=auto;html=1;entryX=0.5;entryY=0;entryDx=0;entryDy=0;fontSize=12;startSize=8;endSize=8;" parent="1" target="IoiNk8IZeVNX4eK0WC4M-5" edge="1">
          <mxGeometry relative="1" as="geometry">
            <mxPoint x="-454" y="263" as="sourcePoint" />
          </mxGeometry>
        </mxCell>
        <mxCell id="IoiNk8IZeVNX4eK0WC4M-7" value="[alteração solicitada]" style="edgeLabel;html=1;align=center;verticalAlign=middle;resizable=0;points=[];fontSize=12;" parent="IoiNk8IZeVNX4eK0WC4M-6" vertex="1" connectable="0">
          <mxGeometry x="-0.1429" relative="1" as="geometry">
            <mxPoint as="offset" />
          </mxGeometry>
        </mxCell>
        <mxCell id="OYxBc7l5gQZNsj0rQO2C-9" value="Remove Usuário da Lista" style="swimlane;fontStyle=0;childLayout=stackLayout;horizontal=1;startSize=31;fillColor=none;horizontalStack=0;resizeParent=1;resizeParentMax=0;resizeLast=0;collapsible=1;marginBottom=0;whiteSpace=wrap;html=1;rounded=1;" parent="1" vertex="1">
          <mxGeometry x="-345" y="431" width="161" height="77" as="geometry" />
        </mxCell>
        <mxCell id="OYxBc7l5gQZNsj0rQO2C-10" value="do / removerUsuario()" style="text;strokeColor=none;fillColor=none;align=left;verticalAlign=top;spacingLeft=4;spacingRight=4;overflow=hidden;rotatable=0;points=[[0,0.5],[1,0.5]];portConstraint=eastwest;whiteSpace=wrap;html=1;" parent="OYxBc7l5gQZNsj0rQO2C-9" vertex="1">
          <mxGeometry y="31" width="161" height="46" as="geometry" />
        </mxCell>
        <mxCell id="97xKX6Yk1gLqRhiEV0gI-1" value="Adiciona Usuário na Lista" style="swimlane;fontStyle=0;childLayout=stackLayout;horizontal=1;startSize=31;fillColor=none;horizontalStack=0;resizeParent=1;resizeParentMax=0;resizeLast=0;collapsible=1;marginBottom=0;whiteSpace=wrap;html=1;rounded=1;" vertex="1" parent="1">
          <mxGeometry x="-725" y="431" width="161" height="77" as="geometry" />
        </mxCell>
        <mxCell id="97xKX6Yk1gLqRhiEV0gI-2" value="do / adicionarUsuario()" style="text;strokeColor=none;fillColor=none;align=left;verticalAlign=top;spacingLeft=4;spacingRight=4;overflow=hidden;rotatable=0;points=[[0,0.5],[1,0.5]];portConstraint=eastwest;whiteSpace=wrap;html=1;" vertex="1" parent="97xKX6Yk1gLqRhiEV0gI-1">
          <mxGeometry y="31" width="161" height="46" as="geometry" />
        </mxCell>
        <mxCell id="97xKX6Yk1gLqRhiEV0gI-3" value="AndarVIP criado" style="swimlane;fontStyle=0;childLayout=stackLayout;horizontal=1;startSize=26;fillColor=none;horizontalStack=0;resizeParent=1;resizeParentMax=0;resizeLast=0;collapsible=1;marginBottom=0;whiteSpace=wrap;html=1;rounded=1;" vertex="1" parent="1">
          <mxGeometry x="-531.5" y="76" width="159" height="65" as="geometry" />
        </mxCell>
        <mxCell id="97xKX6Yk1gLqRhiEV0gI-4" value="criado na promoção de usuário para dono de andar" style="text;strokeColor=none;fillColor=none;align=left;verticalAlign=top;spacingLeft=4;spacingRight=4;overflow=hidden;rotatable=0;points=[[0,0.5],[1,0.5]];portConstraint=eastwest;whiteSpace=wrap;html=1;" vertex="1" parent="97xKX6Yk1gLqRhiEV0gI-3">
          <mxGeometry y="26" width="159" height="39" as="geometry" />
        </mxCell>
        <mxCell id="97xKX6Yk1gLqRhiEV0gI-5" style="edgeStyle=none;curved=1;rounded=0;orthogonalLoop=1;jettySize=auto;html=1;entryX=0.5;entryY=0;entryDx=0;entryDy=0;fontSize=12;startSize=8;endSize=8;" edge="1" parent="1" source="97xKX6Yk1gLqRhiEV0gI-4" target="IoiNk8IZeVNX4eK0WC4M-1">
          <mxGeometry relative="1" as="geometry" />
        </mxCell>
        <mxCell id="97xKX6Yk1gLqRhiEV0gI-6" value="" style="ellipse;html=1;shape=endState;fillColor=#000000;strokeColor=#ff0000;" vertex="1" parent="1">
          <mxGeometry x="-659.5" y="570" width="30" height="30" as="geometry" />
        </mxCell>
        <mxCell id="97xKX6Yk1gLqRhiEV0gI-7" style="edgeStyle=none;curved=1;rounded=0;orthogonalLoop=1;jettySize=auto;html=1;entryX=0.5;entryY=0;entryDx=0;entryDy=0;fontSize=12;startSize=8;endSize=8;" edge="1" parent="1" source="97xKX6Yk1gLqRhiEV0gI-2" target="97xKX6Yk1gLqRhiEV0gI-6">
          <mxGeometry relative="1" as="geometry" />
        </mxCell>
        <mxCell id="97xKX6Yk1gLqRhiEV0gI-8" value="" style="ellipse;html=1;shape=endState;fillColor=#000000;strokeColor=#ff0000;" vertex="1" parent="1">
          <mxGeometry x="-279.5" y="570" width="30" height="30" as="geometry" />
        </mxCell>
        <mxCell id="97xKX6Yk1gLqRhiEV0gI-9" style="edgeStyle=none;curved=1;rounded=0;orthogonalLoop=1;jettySize=auto;html=1;entryX=0.5;entryY=0;entryDx=0;entryDy=0;fontSize=12;startSize=8;endSize=8;" edge="1" parent="1" source="OYxBc7l5gQZNsj0rQO2C-10" target="97xKX6Yk1gLqRhiEV0gI-8">
          <mxGeometry relative="1" as="geometry" />
        </mxCell>
      </root>
    </mxGraphModel>
  </diagram>
</mxfile>
